<?xml version="1.0"?>
<svg xmlns="http://www.w3.org/2000/svg" width="61" height="362" viewBox="0 0 61 362"><svg width="61" height="61" fill="none" id="fb" y="0"><path d="M30.917.12c-16.5 0-30 13.524-30 30.18 0 15.061 10.98 27.561 25.32 29.82V39.036h-7.62V30.3h7.62v-6.657c0-7.56 4.47-11.717 11.34-11.717 3.27 0 6.69.573 6.69.573v7.44h-3.78c-3.72 0-4.89 2.319-4.89 4.698v5.663h8.34l-1.35 8.735h-6.99V60.12a29.97 29.97 0 0018.15-10.21 30.194 30.194 0 007.17-19.61c0-16.656-13.5-30.18-30-30.18z" fill="#7C7C7C"/></svg><svg width="61" height="61" fill="none" id="fb_hover" y="61"><path d="M30.917.12c-16.5 0-30 13.524-30 30.18 0 15.061 10.98 27.561 25.32 29.82V39.036h-7.62V30.3h7.62v-6.657c0-7.56 4.47-11.717 11.34-11.717 3.27 0 6.69.573 6.69.573v7.44h-3.78c-3.72 0-4.89 2.319-4.89 4.698v5.663h8.34l-1.35 8.735h-6.99V60.12a29.97 29.97 0 0018.15-10.21 30.194 30.194 0 007.17-19.61c0-16.656-13.5-30.18-30-30.18z" fill="#CACACA"/></svg><svg width="60" height="60" fill="none" id="instagram" y="122"><path d="M24.258 30a5.742 5.742 0 1011.484 0 5.742 5.742 0 00-11.484 0z" fill="#7C7C7C"/><path d="M16.571 19.84a5.338 5.338 0 011.289-1.98 5.334 5.334 0 011.98-1.289c.607-.236 1.52-.516 3.199-.593 1.817-.083 2.361-.1 6.961-.1s5.145.017 6.961.1c1.68.077 2.592.357 3.199.593a5.33 5.33 0 011.98 1.289 5.34 5.34 0 011.29 1.98c.235.607.516 1.52.592 3.2.083 1.816.1 2.36.1 6.96s-.017 5.145-.1 6.962c-.076 1.68-.357 2.591-.593 3.198a5.34 5.34 0 01-1.288 1.98 5.333 5.333 0 01-1.98 1.29c-.608.236-1.52.516-3.2.593-1.816.082-2.36.1-6.96.1-4.601 0-5.146-.018-6.962-.1-1.68-.077-2.592-.358-3.199-.594a5.705 5.705 0 01-3.269-3.269c-.236-.607-.516-1.519-.593-3.198-.083-1.817-.1-2.362-.1-6.962s.017-5.144.1-6.96c.076-1.68.357-2.593.593-3.2zM30 38.846a8.846 8.846 0 100-17.692A8.846 8.846 0 0021.154 30 8.846 8.846 0 0030 38.846zm-9.196-15.974a2.067 2.067 0 100-4.135 2.067 2.067 0 000 4.135z" fill="#7C7C7C"/><path d="M30 0c16.566 0 30 13.434 30 30 0 16.566-13.434 30-30 30C13.434 60 0 46.566 0 30 0 13.434 13.434 0 30 0zM12.877 37.102c.084 1.834.375 3.086.801 4.182a8.808 8.808 0 005.038 5.038c1.096.426 2.348.717 4.181.8 1.837.084 2.424.105 7.103.105 4.678 0 5.265-.02 7.102-.104 1.834-.084 3.086-.375 4.181-.801a8.44 8.44 0 003.052-1.987 8.445 8.445 0 001.987-3.051c.425-1.096.717-2.348.8-4.181.085-1.838.105-2.425.105-7.103s-.02-5.265-.104-7.102c-.084-1.834-.375-3.086-.8-4.182a8.44 8.44 0 00-1.988-3.05 8.44 8.44 0 00-3.051-1.988c-1.096-.426-2.348-.717-4.182-.8-1.837-.084-2.424-.105-7.102-.105-4.678 0-5.265.02-7.102.105-1.834.083-3.086.374-4.182.8a8.445 8.445 0 00-3.051 1.987 8.44 8.44 0 00-1.987 3.051c-.426 1.096-.717 2.348-.801 4.182-.084 1.837-.104 2.424-.104 7.102 0 4.678.02 5.265.104 7.102z" fill="#7C7C7C"/></svg><svg width="60" height="60" fill="none" id="instagram_hover" y="182"><path d="M24.258 30a5.742 5.742 0 1011.484 0 5.742 5.742 0 00-11.484 0z" fill="#CACACA"/><path d="M16.571 19.84a5.338 5.338 0 011.289-1.98 5.334 5.334 0 011.98-1.289c.607-.236 1.52-.516 3.199-.593 1.817-.083 2.361-.1 6.961-.1s5.145.017 6.961.1c1.68.077 2.592.357 3.199.593a5.33 5.33 0 011.98 1.289 5.34 5.34 0 011.29 1.98c.235.607.516 1.52.592 3.2.083 1.816.1 2.36.1 6.96s-.017 5.145-.1 6.962c-.076 1.68-.357 2.591-.593 3.198a5.34 5.34 0 01-1.288 1.98 5.333 5.333 0 01-1.98 1.29c-.608.236-1.52.516-3.2.593-1.816.082-2.36.1-6.96.1-4.601 0-5.146-.018-6.962-.1-1.68-.077-2.592-.358-3.199-.594a5.705 5.705 0 01-3.269-3.269c-.236-.607-.516-1.519-.593-3.198-.083-1.817-.1-2.362-.1-6.962s.017-5.144.1-6.96c.076-1.68.357-2.593.593-3.2zM30 38.846a8.846 8.846 0 100-17.692A8.846 8.846 0 0021.154 30 8.846 8.846 0 0030 38.846zm-9.196-15.974a2.067 2.067 0 100-4.135 2.067 2.067 0 000 4.135z" fill="#CACACA"/><path d="M30 0c16.566 0 30 13.434 30 30 0 16.566-13.434 30-30 30C13.434 60 0 46.566 0 30 0 13.434 13.434 0 30 0zM12.877 37.102c.084 1.834.375 3.086.801 4.182a8.808 8.808 0 005.038 5.038c1.096.426 2.348.717 4.181.8 1.837.084 2.424.105 7.103.105 4.678 0 5.265-.02 7.102-.104 1.834-.084 3.086-.375 4.181-.801a8.44 8.44 0 003.052-1.987 8.445 8.445 0 001.987-3.051c.425-1.096.717-2.348.8-4.181.085-1.838.105-2.425.105-7.103s-.02-5.265-.104-7.102c-.084-1.834-.375-3.086-.8-4.182a8.44 8.44 0 00-1.988-3.05 8.44 8.44 0 00-3.051-1.988c-1.096-.426-2.348-.717-4.182-.8-1.837-.084-2.424-.105-7.102-.105-4.678 0-5.265.02-7.102.105-1.834.083-3.086.374-4.182.8a8.445 8.445 0 00-3.051 1.987 8.44 8.44 0 00-1.987 3.051c-.426 1.096-.717 2.348-.801 4.182-.084 1.837-.104 2.424-.104 7.102 0 4.678.02 5.265.104 7.102z" fill="#CACACA"/></svg><svg width="60" height="60" fill="none" id="vk" y="242"><path d="M30 0C13.432 0 0 13.431 0 30c0 16.569 13.432 30 30 30 16.568 0 30-13.431 30-30C60 13.431 46.568 0 30 0zm15.218 33.245c1.398 1.365 2.877 2.65 4.132 4.158.556.666 1.08 1.355 1.48 2.13.57 1.106.055 2.319-.935 2.384l-6.146-.001c-1.587.131-2.85-.509-3.915-1.594-.85-.865-1.639-1.789-2.458-2.683-.334-.367-.687-.713-1.106-.985-.838-.545-1.566-.378-2.046.497-.49.891-.601 1.878-.648 2.87-.067 1.449-.504 1.827-1.958 1.895-3.107.146-6.055-.325-8.795-1.892-2.418-1.382-4.288-3.332-5.919-5.54-3.174-4.304-5.606-9.027-7.79-13.887-.492-1.094-.132-1.68 1.075-1.703 2.006-.038 4.012-.033 6.018-.002.816.013 1.357.48 1.67 1.25 1.084 2.668 2.413 5.205 4.078 7.559.444.626.897 1.251 1.542 1.694.712.488 1.255.327 1.59-.468.215-.505.308-1.045.355-1.587.16-1.854.178-3.708-.098-5.555-.172-1.155-.822-1.902-1.974-2.12-.587-.111-.5-.329-.215-.664.495-.58.96-.938 1.887-.938l6.944-.001c1.094.215 1.34.706 1.488 1.808l.006 7.717c-.013.427.215 1.691.98 1.97.614.203 1.02-.29 1.386-.678 1.666-1.767 2.852-3.853 3.915-6.012.469-.951.873-1.937 1.266-2.924.292-.73.746-1.089 1.57-1.076l6.687.008c.197 0 .397.002.592.035 1.127.193 1.436.678 1.088 1.777-.55 1.727-1.615 3.166-2.658 4.609-1.117 1.544-2.308 3.034-3.414 4.585-1.017 1.418-.936 2.132.326 3.364z" fill="#7C7C7C"/></svg><svg width="60" height="60" fill="none" id="vk_hover" y="302"><path d="M30 0C13.432 0 0 13.431 0 30c0 16.569 13.432 30 30 30 16.568 0 30-13.431 30-30C60 13.431 46.568 0 30 0zm15.218 33.245c1.398 1.365 2.877 2.65 4.132 4.158.556.666 1.08 1.355 1.48 2.13.57 1.106.055 2.319-.935 2.384l-6.146-.001c-1.587.131-2.85-.509-3.915-1.594-.85-.865-1.639-1.789-2.458-2.683-.334-.367-.687-.713-1.106-.985-.838-.545-1.566-.378-2.046.497-.49.891-.601 1.878-.648 2.87-.067 1.449-.504 1.827-1.958 1.895-3.107.146-6.055-.325-8.795-1.892-2.418-1.382-4.288-3.332-5.919-5.54-3.174-4.304-5.606-9.027-7.79-13.887-.492-1.094-.132-1.68 1.075-1.703 2.006-.038 4.012-.033 6.018-.002.816.013 1.357.48 1.67 1.25 1.084 2.668 2.413 5.205 4.078 7.559.444.626.897 1.251 1.542 1.694.712.488 1.255.327 1.59-.468.215-.505.308-1.045.355-1.587.16-1.854.178-3.708-.098-5.555-.172-1.155-.822-1.902-1.974-2.12-.587-.111-.5-.329-.215-.664.495-.58.96-.938 1.887-.938l6.944-.001c1.094.215 1.34.706 1.488 1.808l.006 7.717c-.013.427.215 1.691.98 1.97.614.203 1.02-.29 1.386-.678 1.666-1.767 2.852-3.853 3.915-6.012.469-.951.873-1.937 1.266-2.924.292-.73.746-1.089 1.57-1.076l6.687.008c.197 0 .397.002.592.035 1.127.193 1.436.678 1.088 1.777-.55 1.727-1.615 3.166-2.658 4.609-1.117 1.544-2.308 3.034-3.414 4.585-1.017 1.418-.936 2.132.326 3.364z" fill="#CACACA"/></svg></svg>
