<?xml version="1.0"?>
<!--Icons from directory ""-->
<svg xmlns="http://www.w3.org/2000/svg" width="36" height="210" viewBox="0 0 36 210"><svg width="35" height="35" fill="none" id="fb_sm" y="0"><path d="M17.282.069c-9.46 0-17.2 7.754-17.2 17.304 0 8.635 6.295 15.802 14.517 17.097V22.38H10.23v-5.008h4.37v-3.817c0-4.334 2.562-6.717 6.5-6.717 1.876 0 3.837.328 3.837.328v4.265h-2.168c-2.132 0-2.803 1.33-2.803 2.694v3.247h4.781l-.774 5.008h-4.007V34.47a17.183 17.183 0 0010.406-5.854 17.31 17.31 0 004.11-11.243c0-9.55-7.74-17.304-17.2-17.304z" fill="#7C7C7C"/></svg><svg width="35" height="35" fill="none" id="fb_sm_hover" y="35"><path d="M17.282.069c-9.46 0-17.2 7.754-17.2 17.304 0 8.635 6.295 15.802 14.517 17.097V22.38H10.23v-5.008h4.37v-3.817c0-4.334 2.562-6.717 6.5-6.717 1.876 0 3.837.328 3.837.328v4.265h-2.168c-2.132 0-2.803 1.33-2.803 2.694v3.247h4.781l-.774 5.008h-4.007V34.47a17.183 17.183 0 0010.406-5.854 17.31 17.31 0 004.11-11.243c0-9.55-7.74-17.304-17.2-17.304z" fill="#CACACA"/></svg><svg width="35" height="35" fill="none" id="instagram_sm" y="70"><g clip-path="url(#instagram_sm-clip0)" fill="#7C7C7C"><path d="M14.506 17.2a3.292 3.292 0 106.585 0 3.292 3.292 0 00-6.585 0z"/><path d="M10.1 11.375a3.06 3.06 0 01.738-1.135c.319-.328.707-.58 1.136-.74.348-.134.87-.295 1.833-.339 1.042-.047 1.354-.058 3.992-.058 2.637 0 2.95.01 3.99.058.964.044 1.487.205 1.835.34.429.158.817.41 1.135.739.328.318.58.706.74 1.135.135.348.295.871.34 1.834.047 1.042.057 1.354.057 3.992 0 2.637-.01 2.95-.058 3.99-.044.964-.204 1.487-.34 1.835-.158.429-.41.817-.738 1.135a3.06 3.06 0 01-1.136.74c-.348.134-.871.295-1.834.34-1.042.047-1.354.057-3.991.057-2.638 0-2.95-.01-3.991-.058-.963-.044-1.486-.204-1.834-.34a3.27 3.27 0 01-1.875-1.874c-.135-.348-.296-.871-.34-1.834-.047-1.042-.057-1.354-.057-3.991 0-2.638.01-2.95.057-3.992.044-.963.205-1.486.34-1.834zm7.699 10.897a5.072 5.072 0 100-10.143 5.072 5.072 0 000 10.143zm-5.273-9.159a1.185 1.185 0 100-2.37 1.185 1.185 0 000 2.37z"/><path d="M17.799 0c9.498 0 17.2 7.702 17.2 17.2s-7.702 17.2-17.2 17.2S.599 26.7.599 17.2C.598 7.702 8.3 0 17.798 0zM7.98 21.273c.048 1.05.215 1.769.46 2.397a5.05 5.05 0 002.888 2.889c.628.244 1.346.41 2.397.459 1.053.048 1.39.06 4.072.06 2.683 0 3.02-.012 4.073-.06 1.05-.048 1.769-.215 2.397-.46a4.84 4.84 0 001.75-1.139 4.841 4.841 0 001.139-1.749c.244-.628.41-1.346.459-2.397.048-1.054.06-1.39.06-4.073 0-2.682-.012-3.018-.06-4.072-.048-1.051-.215-1.769-.459-2.397a4.84 4.84 0 00-1.14-1.75 4.839 4.839 0 00-1.749-1.139c-.628-.244-1.346-.41-2.397-.459-1.054-.048-1.39-.06-4.072-.06-2.683 0-3.02.012-4.072.06s-1.77.215-2.398.459a4.842 4.842 0 00-1.75 1.14A4.84 4.84 0 008.44 10.73c-.244.628-.41 1.346-.459 2.397-.048 1.054-.06 1.39-.06 4.072 0 2.683.012 3.02.06 4.073z"/></g><defs><clipPath id="instagram_sm-clip0"><path fill="#fff" transform="matrix(-1 0 0 1 34.999 0)" d="M0 0h34.401v34.401H0z"/></clipPath></defs></svg><svg width="35" height="35" fill="none" id="instagram_sm_hover" y="105"><g clip-path="url(#instagram_sm_hover-clip0)" fill="#CACACA"><path d="M14.506 17.2a3.292 3.292 0 106.585 0 3.292 3.292 0 00-6.585 0z"/><path d="M10.1 11.375a3.06 3.06 0 01.738-1.135c.319-.328.707-.58 1.136-.74.348-.134.87-.295 1.833-.339 1.042-.047 1.354-.058 3.992-.058 2.637 0 2.95.01 3.99.058.964.044 1.487.205 1.835.34.429.158.817.41 1.135.739.328.318.58.706.74 1.135.135.348.295.871.34 1.834.047 1.042.057 1.354.057 3.992 0 2.637-.01 2.95-.058 3.99-.044.964-.204 1.487-.34 1.835-.158.429-.41.817-.738 1.135a3.06 3.06 0 01-1.136.74c-.348.134-.871.295-1.834.34-1.042.047-1.354.057-3.991.057-2.638 0-2.95-.01-3.991-.058-.963-.044-1.486-.204-1.834-.34a3.27 3.27 0 01-1.875-1.874c-.135-.348-.296-.871-.34-1.834-.047-1.042-.057-1.354-.057-3.991 0-2.638.01-2.95.057-3.992.044-.963.205-1.486.34-1.834zm7.699 10.897a5.072 5.072 0 100-10.143 5.072 5.072 0 000 10.143zm-5.273-9.159a1.185 1.185 0 100-2.37 1.185 1.185 0 000 2.37z"/><path d="M17.799 0c9.498 0 17.2 7.702 17.2 17.2s-7.702 17.2-17.2 17.2S.599 26.7.599 17.2C.598 7.702 8.3 0 17.798 0zM7.98 21.273c.048 1.05.215 1.769.46 2.397a5.05 5.05 0 002.888 2.889c.628.244 1.346.41 2.397.459 1.053.048 1.39.06 4.072.06 2.683 0 3.02-.012 4.073-.06 1.05-.048 1.769-.215 2.397-.46a4.84 4.84 0 001.75-1.139 4.841 4.841 0 001.139-1.749c.244-.628.41-1.346.459-2.397.048-1.054.06-1.39.06-4.073 0-2.682-.012-3.018-.06-4.072-.048-1.051-.215-1.769-.459-2.397a4.84 4.84 0 00-1.14-1.75 4.839 4.839 0 00-1.749-1.139c-.628-.244-1.346-.41-2.397-.459-1.054-.048-1.39-.06-4.072-.06-2.683 0-3.02.012-4.072.06s-1.77.215-2.398.459a4.842 4.842 0 00-1.75 1.14A4.84 4.84 0 008.44 10.73c-.244.628-.41 1.346-.459 2.397-.048 1.054-.06 1.39-.06 4.072 0 2.683.012 3.02.06 4.073z"/></g><defs><clipPath id="instagram_sm_hover-clip0"><path fill="#fff" transform="matrix(-1 0 0 1 34.999 0)" d="M0 0h34.401v34.401H0z"/></clipPath></defs></svg><svg width="36" height="35" fill="none" id="vk_sm" y="140"><path d="M18.065 0c-9.5 0-17.2 7.7-17.2 17.2s7.7 17.2 17.2 17.2 17.2-7.7 17.2-17.2S27.565 0 18.065 0zm8.725 19.06c.802.784 1.65 1.52 2.37 2.385.318.382.619.777.848 1.222.326.633.031 1.328-.536 1.366h-3.524c-.91.075-1.634-.292-2.245-.915-.487-.495-.94-1.025-1.409-1.538a3.294 3.294 0 00-.634-.564c-.48-.313-.898-.217-1.174.285-.28.51-.344 1.076-.37 1.645-.04.83-.29 1.048-1.123 1.087-1.782.083-3.472-.187-5.043-1.085-1.386-.792-2.459-1.91-3.393-3.176-1.82-2.468-3.215-5.176-4.467-7.963-.282-.627-.076-.963.616-.976 1.15-.022 2.3-.02 3.45-.001.469.007.778.275.958.717.622 1.529 1.384 2.984 2.339 4.333.254.36.514.718.884.971.408.28.719.188.912-.268.123-.29.176-.6.202-.91.092-1.063.103-2.126-.055-3.184-.099-.663-.472-1.091-1.132-1.216-.337-.064-.287-.189-.124-.38.284-.333.55-.538 1.082-.538l3.981-.001c.628.123.769.405.854 1.037l.003 4.424c-.007.245.123.97.562 1.13.352.116.585-.166.795-.39.955-1.012 1.635-2.208 2.244-3.446.27-.546.501-1.11.726-1.677.168-.418.428-.624.9-.617l3.834.005c.113 0 .228 0 .34.02.646.11.823.389.623 1.019-.314.99-.926 1.815-1.523 2.642-.64.886-1.324 1.74-1.958 2.63-.583.813-.537 1.222.187 1.928z" fill="#7C7C7C"/></svg><svg width="36" height="35" fill="none" id="vk_sm_hover" y="175"><path d="M18.065 0c-9.5 0-17.2 7.7-17.2 17.2s7.7 17.2 17.2 17.2 17.2-7.7 17.2-17.2S27.565 0 18.065 0zm8.725 19.06c.802.784 1.65 1.52 2.37 2.385.318.382.619.777.848 1.222.326.633.031 1.328-.536 1.366h-3.524c-.91.075-1.634-.292-2.245-.915-.487-.495-.94-1.025-1.409-1.538a3.294 3.294 0 00-.634-.564c-.48-.313-.898-.217-1.174.285-.28.51-.344 1.076-.37 1.645-.04.83-.29 1.048-1.123 1.087-1.782.083-3.472-.187-5.043-1.085-1.386-.792-2.459-1.91-3.393-3.176-1.82-2.468-3.215-5.176-4.467-7.963-.282-.627-.076-.963.616-.976 1.15-.022 2.3-.02 3.45-.001.469.007.778.275.958.717.622 1.529 1.384 2.984 2.339 4.333.254.36.514.718.884.971.408.28.719.188.912-.268.123-.29.176-.6.202-.91.092-1.063.103-2.126-.055-3.184-.099-.663-.472-1.091-1.132-1.216-.337-.064-.287-.189-.124-.38.284-.333.55-.538 1.082-.538l3.981-.001c.628.123.769.405.854 1.037l.003 4.424c-.007.245.123.97.562 1.13.352.116.585-.166.795-.39.955-1.012 1.635-2.208 2.244-3.446.27-.546.501-1.11.726-1.677.168-.418.428-.624.9-.617l3.834.005c.113 0 .228 0 .34.02.646.11.823.389.623 1.019-.314.99-.926 1.815-1.523 2.642-.64.886-1.324 1.74-1.958 2.63-.583.813-.537 1.222.187 1.928z" fill="#CACACA"/></svg></svg>
